<svg width="360" height="80" viewBox="0 0 360 80" fill="none" xmlns="http://www.w3.org/2000/svg">
<path d="M103.688 25.6875C104.104 26.2292 104.312 26.7917 104.312 27.375C104.312 28.0833 104.042 28.6458 103.5 29.0625C102.958 29.4375 102.312 29.625 101.562 29.625C101.188 29.625 100.792 29.5208 100.375 29.3125C100 29.0625 99.6042 28.7917 99.1875 28.5C98.8125 28.1667 98.4167 27.8333 98 27.5C97.625 27.125 97.2708 26.8333 96.9375 26.625C96.4375 26.5 96.0417 26.375 95.75 26.25C95.4583 26.0833 94.9792 25.9583 94.3125 25.875C92.7292 26.0833 91.2917 26.7083 90 27.75C88.7083 28.75 87.5833 30.0208 86.625 31.5625C85.7083 33.0625 84.9792 34.7292 84.4375 36.5625C83.9375 38.3958 83.6875 40.2083 83.6875 42C83.6875 43.4583 83.875 44.8333 84.25 46.125C84.625 47.375 85.2083 48.5 86 49.5C86.7917 50.4583 87.75 51.2292 88.875 51.8125C90.0417 52.3542 91.4167 52.625 93 52.625C94.75 52.625 96.4167 52.2708 98 51.5625C99.5833 50.8542 100.729 49.8333 101.438 48.5C102.104 47.5417 102.854 47.0625 103.688 47.0625C104.271 47.0625 104.833 47.2708 105.375 47.6875C105.958 48.0625 106.25 48.625 106.25 49.375C106.25 50 106.083 50.6042 105.75 51.1875C105.417 51.7292 105 52.25 104.5 52.75C104 53.2083 103.458 53.6458 102.875 54.0625C102.292 54.4375 101.75 54.7708 101.25 55.0625C100.042 55.8958 98.75 56.5 97.375 56.875C96 57.25 94.6458 57.4375 93.3125 57.4375C91.3542 57.4375 89.5 57.125 87.75 56.5C86 55.8333 84.4583 54.8958 83.125 53.6875C81.8333 52.4792 80.7917 50.9792 80 49.1875C79.2083 47.3958 78.8125 45.3333 78.8125 43C78.8125 38.625 79.6458 34.7083 81.3125 31.25C83.0208 27.75 85.3958 24.875 88.4375 22.625C89.1875 22.0417 90.0417 21.625 91 21.375C91.9583 21.0833 92.9583 20.9375 94 20.9375C95.1667 20.9375 96.1667 21.0625 97 21.3125C97.8333 21.5625 98.6042 21.9167 99.3125 22.375C100.062 22.7917 100.771 23.2917 101.438 23.875C102.104 24.4583 102.854 25.0625 103.688 25.6875ZM117.392 45.125C117.184 45.0833 116.997 45.0625 116.83 45.0625C116.747 45.0625 116.538 45.375 116.205 46C115.872 46.5833 115.476 47.2708 115.017 48.0625C114.601 48.8125 114.184 49.5833 113.767 50.375C113.351 51.125 113.038 51.6667 112.83 52C112.163 52.7917 111.413 53.1875 110.58 53.1875C109.955 53.1875 109.413 52.9792 108.955 52.5625C108.497 52.1042 108.267 51.4583 108.267 50.625C108.267 50.2917 108.288 50.0208 108.33 49.8125C109.705 47.3958 111.017 45.0208 112.267 42.6875C113.517 40.3542 114.809 38.0417 116.142 35.75C117.517 33.4583 118.955 31.2292 120.455 29.0625C121.955 26.8542 123.642 24.7083 125.517 22.625C125.809 22.2917 126.122 22.0833 126.455 22C126.788 21.875 127.101 21.7917 127.392 21.75C128.017 21.75 128.538 21.9792 128.955 22.4375C129.413 22.8958 129.684 23.4583 129.767 24.125C129.642 24.5833 129.497 24.8958 129.33 25.0625L129.83 24.8125C130.372 24.8125 130.934 24.9583 131.517 25.25C132.142 25.5417 132.58 26.1042 132.83 26.9375C133.163 29.2708 133.559 31.5417 134.017 33.75C134.476 35.9167 134.913 38.1042 135.33 40.3125C135.788 42.4792 136.184 44.6667 136.517 46.875C136.892 49.0833 137.122 51.375 137.205 53.75C137.205 54.5833 136.955 55.2292 136.455 55.6875C135.955 56.1042 135.413 56.3125 134.83 56.3125C134.205 56.3125 133.601 56.125 133.017 55.75C132.476 55.375 132.163 54.7292 132.08 53.8125C131.997 50.8958 131.747 48.1458 131.33 45.5625C131.247 45.6458 131.017 45.7083 130.642 45.75C128.392 45.75 126.142 45.6458 123.892 45.4375C121.684 45.2292 119.517 45.125 117.392 45.125ZM119.58 40.125C121.08 40.2083 122.83 40.3125 124.83 40.4375C126.83 40.5625 128.663 40.625 130.33 40.625H130.392L130.33 40.3125C130.205 39.8958 130.059 39.2917 129.892 38.5C129.726 37.7083 129.538 36.8542 129.33 35.9375C129.163 35.0208 128.976 34.0833 128.767 33.125C128.601 32.125 128.434 31.2292 128.267 30.4375C128.101 29.6458 127.955 29 127.83 28.5C127.747 28 127.705 27.75 127.705 27.75C127.33 28.0833 126.809 28.6875 126.142 29.5625C125.559 30.3125 124.809 31.4167 123.892 32.875C122.976 34.2917 121.83 36.2292 120.455 38.6875L119.58 40.125ZM155.66 38.3125C157.118 40.8125 158.389 43.5208 159.472 46.4375C160.556 49.3125 161.743 52.1667 163.035 55C163.077 55.2083 163.097 55.5208 163.097 55.9375C163.097 56.7292 162.889 57.375 162.472 57.875C162.056 58.4167 161.452 58.6875 160.66 58.6875C160.16 58.6875 159.681 58.5417 159.222 58.25C158.764 57.9583 158.431 57.5 158.222 56.875C157.639 55.5833 157.077 54.2708 156.535 52.9375C156.035 51.6042 155.535 50.2917 155.035 49C154.535 47.6667 154.014 46.375 153.472 45.125C152.931 43.875 152.347 42.7083 151.722 41.625C150.097 43.0417 148.202 44.5 146.035 46L145.847 46.125C145.806 47.7083 145.785 49.3542 145.785 51.0625C145.785 52.7292 145.785 54.5 145.785 56.375C145.785 57.0417 145.535 57.625 145.035 58.125C144.535 58.625 143.993 58.875 143.41 58.875C142.827 58.875 142.222 58.6667 141.597 58.25C141.014 57.8333 140.722 57.1875 140.722 56.3125C140.722 53.1458 140.743 50.125 140.785 47.25C140.827 44.375 140.868 41.5417 140.91 38.75C140.993 35.9583 141.056 33.1458 141.097 30.3125C141.181 27.4375 141.222 24.3958 141.222 21.1875C141.389 20.3958 141.702 19.8125 142.16 19.4375C142.66 19.0625 143.202 18.8333 143.785 18.75C144.327 18.75 144.827 18.9583 145.285 19.375C145.743 19.75 146.077 20.3333 146.285 21.125C146.285 24.25 146.264 27.2708 146.222 30.1875C146.181 33.0625 146.118 35.875 146.035 38.625V39.75C148.368 37.9167 150.785 35.8542 153.285 33.5625C155.785 31.2708 158.181 28.7708 160.472 26.0625C160.722 25.7292 160.993 25.5208 161.285 25.4375C161.618 25.3542 161.931 25.2917 162.222 25.25C162.889 25.25 163.472 25.4375 163.972 25.8125C164.514 26.1875 164.785 26.7917 164.785 27.625C164.785 27.8333 164.764 28.0625 164.722 28.3125C164.681 28.5208 164.618 28.7292 164.535 28.9375C163.118 30.6042 161.681 32.1875 160.222 33.6875C158.806 35.1875 157.368 36.625 155.91 38L155.66 38.3125ZM170.427 56.6875C170.052 56.1875 169.74 55.5833 169.49 54.875C169.282 54.1667 169.115 53.4167 168.99 52.625C168.865 51.8333 168.761 51.0208 168.677 50.1875C168.636 49.3542 168.594 48.5625 168.552 47.8125L168.177 40.3125C168.052 39.1042 167.948 38.1875 167.865 37.5625C167.823 36.9375 167.761 36.3125 167.677 35.6875C167.636 35.0208 167.594 34.2292 167.552 33.3125C167.552 32.3542 167.552 30.9583 167.552 29.125C167.552 28.5 167.532 27.8958 167.49 27.3125C167.49 26.7292 167.49 26.1458 167.49 25.5625C167.49 24.0625 167.865 23.0417 168.615 22.5C169.407 21.9167 170.407 21.625 171.615 21.625C172.323 21.625 173.073 21.6667 173.865 21.75C174.657 21.7917 175.448 21.8125 176.24 21.8125C177.698 21.8125 179.136 21.625 180.552 21.25C181.969 20.8333 183.344 20.5 184.677 20.25C185.511 20.25 186.219 20.4792 186.802 20.9375C187.386 21.3542 187.677 21.875 187.677 22.5C187.677 23.0833 187.49 23.6667 187.115 24.25C186.74 24.7917 186.136 25.1458 185.302 25.3125C183.677 25.6458 182.011 26.0208 180.302 26.4375C178.594 26.8542 176.865 27.0625 175.115 27.0625C174.657 27.0625 174.198 27.0625 173.74 27.0625C173.282 27.0625 172.886 27.0208 172.552 26.9375C172.594 28.5208 172.636 30.0417 172.677 31.5C172.719 32.9583 172.782 34.375 172.865 35.75H172.927C176.094 35.4167 179.073 35.2292 181.865 35.1875C184.657 35.1042 187.615 35.0625 190.74 35.0625C192.282 35.4792 193.052 36.3333 193.052 37.625C193.052 38.2083 192.823 38.75 192.365 39.25C191.948 39.7083 191.365 40 190.615 40.125C190.282 40.125 189.615 40.125 188.615 40.125C187.657 40.125 186.532 40.1458 185.24 40.1875C183.948 40.1875 182.594 40.2083 181.177 40.25C179.761 40.25 178.448 40.2917 177.24 40.375C176.073 40.4167 175.094 40.4792 174.302 40.5625C173.552 40.6458 173.177 40.75 173.177 40.875C173.177 42.75 173.282 44.625 173.49 46.5C173.74 48.3333 173.948 50.1458 174.115 51.9375C175.24 51.5208 176.469 51.1667 177.802 50.875C179.136 50.5417 180.511 50.2917 181.927 50.125C183.386 49.9583 184.865 49.8333 186.365 49.75C187.865 49.6667 189.323 49.625 190.74 49.625C191.573 49.9583 192.157 50.3542 192.49 50.8125C192.865 51.2292 193.052 51.7083 193.052 52.25C193.052 52.8333 192.823 53.375 192.365 53.875C191.948 54.3333 191.365 54.625 190.615 54.75C188.698 54.75 186.698 54.8958 184.615 55.1875C182.532 55.4375 180.594 55.75 178.802 56.125C177.052 56.4583 175.552 56.75 174.302 57C173.052 57.2917 172.302 57.4375 172.052 57.4375C171.844 57.4375 171.594 57.3542 171.302 57.1875C171.052 57.0625 170.761 56.8958 170.427 56.6875ZM215.087 21.1875C215.254 21.0625 215.629 21 216.212 21L222.212 22.5625C223.712 22.8958 225.108 23.5833 226.4 24.625C227.733 25.625 228.921 26.7708 229.962 28.0625C231.004 29.3125 231.858 30.625 232.525 32C233.233 33.375 233.712 34.5833 233.962 35.625C234.254 36.7917 234.4 38.0833 234.4 39.5C234.4 40.4167 234.317 41.4583 234.15 42.625C234.025 43.7917 233.775 44.9583 233.4 46.125C233.067 47.2917 232.587 48.4167 231.962 49.5C231.379 50.5417 230.608 51.4375 229.65 52.1875C228.442 53.1458 227.504 53.8542 226.837 54.3125C226.171 54.7708 225.567 55.125 225.025 55.375C224.525 55.625 223.942 55.8542 223.275 56.0625C222.65 56.2292 221.733 56.5208 220.525 56.9375C220.192 57.0208 219.942 57.0625 219.775 57.0625C219.317 57.0625 218.9 56.9583 218.525 56.75C218.192 56.5 217.983 56.375 217.9 56.375H217.837H217.775C217.733 56.375 217.483 56.5208 217.025 56.8125C216.608 57.1042 216.212 57.25 215.837 57.25C215.254 57.25 214.65 57.0625 214.025 56.6875C213.442 56.3125 213.15 55.7292 213.15 54.9375C213.15 49.5208 212.9 44.1875 212.4 38.9375C211.942 33.6875 211.462 28.3333 210.962 22.875C211.296 21.5833 212.129 20.8333 213.462 20.625C214.087 20.625 214.608 20.7708 215.025 21.0625L215.087 21.1875ZM218.212 52.375C218.171 52.4583 218.15 52.5 218.15 52.5C218.15 52.5417 218.192 52.5625 218.275 52.5625C218.358 52.5625 218.442 52.5625 218.525 52.5625C218.65 52.5625 218.796 52.5208 218.962 52.4375C219.712 52.1875 220.504 51.9375 221.337 51.6875C222.171 51.4375 222.983 51.1042 223.775 50.6875C224.567 50.2292 225.317 49.625 226.025 48.875C226.775 48.125 227.462 47.1042 228.087 45.8125C229.004 43.8542 229.462 41.875 229.462 39.875C229.462 37.875 229.004 35.8958 228.087 33.9375C227.212 31.9375 225.9 30.25 224.15 28.875C223.192 28.1667 222.15 27.6042 221.025 27.1875C219.9 26.7708 218.837 26.4375 217.837 26.1875L216.337 25.8125C216.546 27.9792 216.754 30.2292 216.962 32.5625C217.171 34.8542 217.358 37.1458 217.525 39.4375C217.733 41.7292 217.879 43.9792 217.962 46.1875C218.087 48.3958 218.171 50.4583 218.212 52.375ZM242.355 57.3125C242.355 58.0208 242.084 58.6042 241.542 59.0625C241.042 59.5208 240.501 59.75 239.917 59.75C239.334 59.75 238.751 59.5417 238.167 59.125C237.626 58.75 237.313 58.125 237.23 57.25C237.23 54.4583 237.251 51.6875 237.292 48.9375C237.376 46.1875 237.417 43.4167 237.417 40.625C237.417 39.8333 237.355 38.5833 237.23 36.875C237.147 35.125 237.105 33.3125 237.105 31.4375C237.105 29.4375 237.167 27.4792 237.292 25.5625C237.459 23.6458 237.834 21.9792 238.417 20.5625L238.792 19.9375L239.48 19.375C240.605 18.9583 241.772 18.75 242.98 18.75C244.688 18.75 246.522 18.9375 248.48 19.3125C250.438 19.6458 252.251 20.25 253.917 21.125C255.584 22 256.959 23.1875 258.042 24.6875C259.167 26.1458 259.73 28.0208 259.73 30.3125C259.73 31.3958 259.563 32.3958 259.23 33.3125C258.938 34.2292 258.542 35.0625 258.042 35.8125C257.584 36.5625 257.042 37.2292 256.417 37.8125C255.834 38.3958 255.251 38.875 254.667 39.25C253.459 40.0417 252.126 40.6667 250.667 41.125C249.209 41.5417 247.688 42.0208 246.105 42.5625L245.355 42.8125C245.272 42.7708 245.23 42.75 245.23 42.75C246.23 43.4583 247.167 44.2083 248.042 45C248.959 45.75 249.876 46.5 250.792 47.25C251.751 48 252.73 48.7292 253.73 49.4375C254.772 50.1042 255.897 50.7292 257.105 51.3125C257.897 52.0625 258.292 52.8542 258.292 53.6875C258.292 54.3958 258.042 54.9792 257.542 55.4375C257.084 55.8542 256.522 56.0625 255.855 56.0625C255.355 56.0625 254.772 55.9167 254.105 55.625C253.438 55.3333 252.751 54.9792 252.042 54.5625C251.334 54.1042 250.605 53.625 249.855 53.125C249.147 52.625 248.48 52.1667 247.855 51.75C246.772 51.0417 245.772 50.3125 244.855 49.5625C243.98 48.8125 243.188 48.0833 242.48 47.375V48.6875C242.48 50.0625 242.438 51.4792 242.355 52.9375C242.313 54.3542 242.313 55.8125 242.355 57.3125ZM242.542 38.125C242.459 38.2083 242.417 38.25 242.417 38.25C242.376 38.25 242.48 38.2083 242.73 38.125C243.647 37.875 244.772 37.625 246.105 37.375C247.48 37.0833 248.792 36.6875 250.042 36.1875C251.292 35.6458 252.355 34.9375 253.23 34.0625C254.147 33.1458 254.605 31.9167 254.605 30.375C254.605 29.125 254.355 28.1458 253.855 27.4375C253.397 26.7292 252.772 26.1875 251.98 25.8125C251.23 25.3958 250.376 25.1042 249.417 24.9375C248.459 24.7292 247.501 24.5208 246.542 24.3125C246.001 24.1875 245.397 24.0833 244.73 24C244.063 23.875 243.501 23.8125 243.042 23.8125C242.876 23.8125 242.751 24.0833 242.667 24.625C242.584 25.125 242.522 25.7292 242.48 26.4375C242.48 27.1458 242.48 27.8542 242.48 28.5625C242.48 29.2292 242.48 29.7292 242.48 30.0625C242.48 31.6042 242.48 33.0625 242.48 34.4375C242.522 35.8125 242.542 37.0417 242.542 38.125ZM265.935 56.6875C265.56 56.1875 265.247 55.5833 264.997 54.875C264.789 54.1667 264.622 53.4167 264.497 52.625C264.372 51.8333 264.268 51.0208 264.185 50.1875C264.143 49.3542 264.102 48.5625 264.06 47.8125L263.685 40.3125C263.56 39.1042 263.456 38.1875 263.372 37.5625C263.331 36.9375 263.268 36.3125 263.185 35.6875C263.143 35.0208 263.102 34.2292 263.06 33.3125C263.06 32.3542 263.06 30.9583 263.06 29.125C263.06 28.5 263.039 27.8958 262.997 27.3125C262.997 26.7292 262.997 26.1458 262.997 25.5625C262.997 24.0625 263.372 23.0417 264.122 22.5C264.914 21.9167 265.914 21.625 267.122 21.625C267.831 21.625 268.581 21.6667 269.372 21.75C270.164 21.7917 270.956 21.8125 271.747 21.8125C273.206 21.8125 274.643 21.625 276.06 21.25C277.477 20.8333 278.852 20.5 280.185 20.25C281.018 20.25 281.727 20.4792 282.31 20.9375C282.893 21.3542 283.185 21.875 283.185 22.5C283.185 23.0833 282.997 23.6667 282.622 24.25C282.247 24.7917 281.643 25.1458 280.81 25.3125C279.185 25.6458 277.518 26.0208 275.81 26.4375C274.102 26.8542 272.372 27.0625 270.622 27.0625C270.164 27.0625 269.706 27.0625 269.247 27.0625C268.789 27.0625 268.393 27.0208 268.06 26.9375C268.102 28.5208 268.143 30.0417 268.185 31.5C268.227 32.9583 268.289 34.375 268.372 35.75H268.435C271.602 35.4167 274.581 35.2292 277.372 35.1875C280.164 35.1042 283.122 35.0625 286.247 35.0625C287.789 35.4792 288.56 36.3333 288.56 37.625C288.56 38.2083 288.331 38.75 287.872 39.25C287.456 39.7083 286.872 40 286.122 40.125C285.789 40.125 285.122 40.125 284.122 40.125C283.164 40.125 282.039 40.1458 280.747 40.1875C279.456 40.1875 278.102 40.2083 276.685 40.25C275.268 40.25 273.956 40.2917 272.747 40.375C271.581 40.4167 270.602 40.4792 269.81 40.5625C269.06 40.6458 268.685 40.75 268.685 40.875C268.685 42.75 268.789 44.625 268.997 46.5C269.247 48.3333 269.456 50.1458 269.622 51.9375C270.747 51.5208 271.977 51.1667 273.31 50.875C274.643 50.5417 276.018 50.2917 277.435 50.125C278.893 49.9583 280.372 49.8333 281.872 49.75C283.372 49.6667 284.831 49.625 286.247 49.625C287.081 49.9583 287.664 50.3542 287.997 50.8125C288.372 51.2292 288.56 51.7083 288.56 52.25C288.56 52.8333 288.331 53.375 287.872 53.875C287.456 54.3333 286.872 54.625 286.122 54.75C284.206 54.75 282.206 54.8958 280.122 55.1875C278.039 55.4375 276.102 55.75 274.31 56.125C272.56 56.4583 271.06 56.75 269.81 57C268.56 57.2917 267.81 57.4375 267.56 57.4375C267.352 57.4375 267.102 57.3542 266.81 57.1875C266.56 57.0625 266.268 56.8958 265.935 56.6875ZM299.14 45.125C298.932 45.0833 298.744 45.0625 298.577 45.0625C298.494 45.0625 298.286 45.375 297.952 46C297.619 46.5833 297.223 47.2708 296.765 48.0625C296.348 48.8125 295.932 49.5833 295.515 50.375C295.098 51.125 294.786 51.6667 294.577 52C293.911 52.7917 293.161 53.1875 292.327 53.1875C291.702 53.1875 291.161 52.9792 290.702 52.5625C290.244 52.1042 290.015 51.4583 290.015 50.625C290.015 50.2917 290.036 50.0208 290.077 49.8125C291.452 47.3958 292.765 45.0208 294.015 42.6875C295.265 40.3542 296.557 38.0417 297.89 35.75C299.265 33.4583 300.702 31.2292 302.202 29.0625C303.702 26.8542 305.39 24.7083 307.265 22.625C307.557 22.2917 307.869 22.0833 308.202 22C308.536 21.875 308.848 21.7917 309.14 21.75C309.765 21.75 310.286 21.9792 310.702 22.4375C311.161 22.8958 311.432 23.4583 311.515 24.125C311.39 24.5833 311.244 24.8958 311.077 25.0625L311.577 24.8125C312.119 24.8125 312.682 24.9583 313.265 25.25C313.89 25.5417 314.327 26.1042 314.577 26.9375C314.911 29.2708 315.307 31.5417 315.765 33.75C316.223 35.9167 316.661 38.1042 317.077 40.3125C317.536 42.4792 317.932 44.6667 318.265 46.875C318.64 49.0833 318.869 51.375 318.952 53.75C318.952 54.5833 318.702 55.2292 318.202 55.6875C317.702 56.1042 317.161 56.3125 316.577 56.3125C315.952 56.3125 315.348 56.125 314.765 55.75C314.223 55.375 313.911 54.7292 313.827 53.8125C313.744 50.8958 313.494 48.1458 313.077 45.5625C312.994 45.6458 312.765 45.7083 312.39 45.75C310.14 45.75 307.89 45.6458 305.64 45.4375C303.432 45.2292 301.265 45.125 299.14 45.125ZM301.327 40.125C302.827 40.2083 304.577 40.3125 306.577 40.4375C308.577 40.5625 310.411 40.625 312.077 40.625H312.14L312.077 40.3125C311.952 39.8958 311.807 39.2917 311.64 38.5C311.473 37.7083 311.286 36.8542 311.077 35.9375C310.911 35.0208 310.723 34.0833 310.515 33.125C310.348 32.125 310.182 31.2292 310.015 30.4375C309.848 29.6458 309.702 29 309.577 28.5C309.494 28 309.452 27.75 309.452 27.75C309.077 28.0833 308.557 28.6875 307.89 29.5625C307.307 30.3125 306.557 31.4167 305.64 32.875C304.723 34.2917 303.577 36.2292 302.202 38.6875L301.327 40.125ZM344.97 25.125L346.533 22.8125C347.158 22.2708 347.595 21.9583 347.845 21.875C348.137 21.75 348.491 21.6875 348.908 21.6875H349.345L350.22 21.9375L350.783 22.4375C351.199 22.8125 351.553 23.4167 351.845 24.25C352.137 25.0417 352.387 25.8958 352.595 26.8125C352.803 27.7292 352.97 28.625 353.095 29.5C353.22 30.3333 353.345 31 353.47 31.5C353.762 32.875 353.991 34.0417 354.158 35C354.324 35.9583 354.47 36.8542 354.595 37.6875C354.72 38.5208 354.845 39.4167 354.97 40.375C355.137 41.3333 355.366 42.5 355.658 43.875C355.991 45.5833 356.283 47.2292 356.533 48.8125C356.824 50.3542 356.97 51.9583 356.97 53.625C356.97 55.125 356.699 56.125 356.158 56.625C355.616 57.125 354.928 57.375 354.095 57.375C353.47 57.2917 352.949 57.0417 352.533 56.625C352.116 56.2083 351.887 55.625 351.845 54.875C351.887 54.5417 351.908 54.2292 351.908 53.9375C351.949 53.6458 351.97 53.3333 351.97 53C351.97 51.375 351.783 49.8125 351.408 48.3125C351.074 46.7708 350.741 45.1667 350.408 43.5C349.824 40.5 349.366 37.9167 349.033 35.75C348.741 33.5833 348.345 31.5417 347.845 29.625L347.533 30.0625C346.741 31.2292 345.949 32.4583 345.158 33.75C344.366 35 343.595 36.25 342.845 37.5C342.137 38.75 341.449 39.9375 340.783 41.0625C340.158 42.1875 339.595 43.1875 339.095 44.0625C338.345 44.9375 337.616 45.375 336.908 45.375C336.241 45.375 335.595 45.0417 334.97 44.375C334.387 43.6667 333.824 42.7917 333.283 41.75C332.741 40.7083 332.241 39.6042 331.783 38.4375C331.366 37.2292 330.991 36.1458 330.658 35.1875L328.72 30.625C328.387 32.2083 328.116 33.9167 327.908 35.75C327.741 37.5417 327.616 39.4167 327.533 41.375C327.449 43.2917 327.387 45.25 327.345 47.25C327.345 49.25 327.345 51.2292 327.345 53.1875C327.345 53.9375 327.074 54.5417 326.533 55C325.991 55.4583 325.428 55.6875 324.845 55.6875C324.095 55.6875 323.533 55.5 323.158 55.125C322.824 54.75 322.595 54.2292 322.47 53.5625C322.345 52.8958 322.283 52.1458 322.283 51.3125C322.283 50.4375 322.283 49.5208 322.283 48.5625C322.283 45.6875 322.345 42.8333 322.47 40C322.595 37.1667 322.949 34.3125 323.533 31.4375C323.699 30.8958 323.824 30.1458 323.908 29.1875C324.033 28.1875 324.22 27.2292 324.47 26.3125C324.762 25.3958 325.158 24.6042 325.658 23.9375C326.199 23.2292 326.949 22.875 327.908 22.875C328.658 22.875 329.428 23.2708 330.22 24.0625C331.012 24.8125 331.762 25.7917 332.47 27C333.22 28.2083 333.908 29.5417 334.533 31C335.199 32.4583 335.762 33.8958 336.22 35.3125C336.595 36.5625 336.928 37.1875 337.22 37.1875C337.22 37.1875 337.366 36.9792 337.658 36.5625C337.949 36.1458 338.303 35.625 338.72 35C339.137 34.3333 339.574 33.625 340.033 32.875C340.533 32.0833 340.991 31.3125 341.408 30.5625L344.22 26.25C344.47 25.9583 344.72 25.5833 344.97 25.125Z" fill="#46220F"/>
<path d="M59.8412 31.0209C56.8402 25.2635 50.7048 21.7512 45.0585 18.9947C39.5011 16.305 36.5446 16.6829 32.2988 19.1948C31.8986 18.5724 31.432 18.0166 30.8316 17.6165C29.809 16.9496 28.5864 16.9052 27.4083 17.1719C27.3416 16.6606 27.2304 16.1716 27.1193 15.6603C26.5413 12.3036 24.4517 9.45826 21.6953 7.30199C20.4949 6.34612 18.8054 8.03557 20.0058 8.99144C22.9401 11.2811 24.7407 14.0153 24.8741 17.661C23.607 17.9499 22.4511 18.6835 21.6953 19.9951C20.7172 21.6845 20.2059 23.3962 20.7394 25.0412C13.9594 27.5087 7.8018 31.4433 1.53306 34.9998C0.999553 35.311 0.866175 35.889 1.04401 36.4005C-0.667663 43.3359 0.199289 50.2715 0.377125 57.3629C0.399355 58.141 0.955094 58.6078 1.68867 58.6743C11.5364 59.7635 21.3841 60.097 31.2984 60.2528C37.9006 60.3415 45.1252 61.5866 51.6609 60.6085C54.0173 60.2528 55.1287 57.9409 55.8621 56.0069C58.5965 48.9159 56.3956 40.6243 59.1965 33.3552C59.2634 33.1774 59.2854 32.9996 59.2854 32.844C59.9303 32.5325 60.1968 31.71 59.8412 31.0209ZM21.473 26.4861C21.5397 26.5972 21.6063 26.6862 21.6953 26.7973C24.7852 30.3985 31.743 29.087 33.0768 24.5744C33.2991 23.7963 33.3435 22.9294 33.2549 22.0624C38.3899 19.3059 42.0131 20.4397 47.7928 23.5963C50.6604 25.1523 53.1945 27.153 55.5509 29.3759C57.9294 31.6211 48.393 32.7326 48.104 32.7993C34.5215 35.4224 20.3835 35.0445 6.55694 34.9111C11.5364 32.1102 16.5602 29.3759 21.473 26.4861ZM48.5263 58.1187C45.303 58.1632 42.0131 57.7186 38.8122 57.6519C28.8754 57.4074 18.961 57.4741 9.04665 56.8517C4.6452 56.5404 2.84461 53.5839 2.19995 49.7824C11.3363 52.6723 22.6956 53.4948 32.2765 53.6951C39.2788 53.8507 46.2589 54.5176 53.1945 54.8288C52.5499 56.7183 51.2383 58.0743 48.5263 58.1187ZM54.3729 42.5581C54.2173 42.4027 54.017 42.2915 53.7727 42.2246C52.5276 41.6022 50.9051 41.5135 49.6378 41.7578C49.5267 41.78 49.46 41.8245 49.3713 41.8689C42.2134 40.9353 32.9436 42.936 26.7414 42.5581C23.1624 42.3358 14.0928 40.5799 7.64619 41.2021C7.51281 41.0909 7.37943 41.002 7.2016 40.9575C5.68999 40.5129 4.11169 40.446 2.53339 40.446C2.35556 40.446 2.19995 40.4905 2.06657 40.5349C2.13326 39.379 2.22218 38.2453 2.26664 37.2227C20.317 37.2672 38.4119 37.8454 56.0621 33.6885C55.1063 36.5783 54.6617 39.5571 54.3729 42.5581Z" fill="#46220F"/>
</svg>
